<?xml version="1.0" standalone="no"?>
<!DOCTYPE svg PUBLIC "-//W3C//DTD SVG 1.1//EN" "http://www.w3.org/Graphics/SVG/1.1/DTD/svg11.dtd" >
<svg xmlns="http://www.w3.org/2000/svg">
<metadata>
<json>
<![CDATA[
{
	"fontFamily": "ChevronIcons",
	"description": "Font generated by IcoMoon.",
	"majorVersion": 0,
	"version": "Version 1.0",
	"fontId": "ChevronIcons",
	"psName": "ChevronIcons",
	"subFamily": "Regular",
	"fullName": "ChevronIcons"
}
]]>
</json>
</metadata>
<defs>
<font id="ChevronIcons" horiz-adv-x="1024">
<font-face units-per-em="1024" ascent="828.8093841642228" descent="-195.19061583577712" />
<missing-glyph horiz-adv-x="1024" />
<glyph unicode="&#x20;" horiz-adv-x="0" d="" />
<glyph unicode="&#xe5fd;" glyph-name="glyphicon-arrow-up" data-tags="glyphicon-arrow-up" horiz-adv-x="885" d="M441.573 773.666q19.844 0 33.739-14.885l329.443-327.459v-142.891l-309.597 312.574v-631.103h-103.199v633.087l-312.574-312.574v143.883l326.468 324.483q16.867 14.885 35.724 14.885z" />
<glyph unicode="&#xe5fe;" glyph-name="glyphicon-arrow-down" data-tags="glyphicon-arrow-down" horiz-adv-x="885" d="M391.958 772.675h103.199v-630.111l309.597 309.597v-140.906l-326.468-324.483q-12.902-15.875-33.739-15.875-19.844 0-35.724 15.875l-329.443 327.459v140.906l312.574-310.589z" />
<glyph unicode="&#xe5ff;" glyph-name="glyphicon-arrow-left" data-tags="glyphicon-arrow-left" horiz-adv-x="902" d="M388.981 732.982h142.891l-309.597-309.597h629.118v-102.208h-628.126l311.582-309.597h-144.875l-324.483 325.475q-15.875 17.859-15.875 36.716 0 19.844 15.875 33.739z" />
<glyph unicode="&#xe600;" glyph-name="glyphicon-arrow-right" data-tags="glyphicon-arrow-right" horiz-adv-x="902" d="M368.143 732.982h144.875l324.483-325.475q13.894-12.902 13.894-33.739 0-21.829-13.894-36.716l-327.459-325.475h-142.891l312.574 309.597h-630.111v102.208h631.103z" />
<glyph unicode="&#xe601;" glyph-name="glyphicon-chevron-down" data-tags="glyphicon-chevron-down" horiz-adv-x="882" d="M801.778 612.914v-139.914l-329.443-328.452q-14.885-14.885-32.746-14.885-22.822 0-36.716 14.885l-323.49 325.475v141.898l360.204-360.204z" />
<glyph unicode="&#xe602;" glyph-name="uniE602glyphicon-chevron-left" data-tags="uniE602glyphicon-chevron-left" horiz-adv-x="586" d="M387.989 732.982h143.883l-363.182-360.204 365.167-361.197h-142.891l-327.459 325.475q-13.894 16.867-13.894 35.724 0 22.822 13.894 34.731z" />
<glyph unicode="&#xe603;" glyph-name="glyphicon-chevron-right" data-tags="glyphicon-chevron-right" horiz-adv-x="585" d="M51.598 732.982h140.906l326.468-325.475q13.894-13.894 13.894-33.739t-13.894-36.716l-329.443-325.475h-139.914l362.189 361.197z" />
<glyph unicode="&#xe604;" glyph-name="glyphicon-chevron-up" data-tags="glyphicon-chevron-up" horiz-adv-x="885" d="M444.55 612.914q22.822 0 33.739-11.91l326.468-325.475v-142.891l-360.204 361.197-365.167-364.174v142.891l329.443 328.452q14.885 11.91 35.724 11.91z" />
<glyph unicode="&#xe605;" glyph-name="glyphicon-credit-card" data-tags="glyphicon-credit-card" horiz-adv-x="1172" d="M163.73 696.267h845.439q30.761 0 52.591-22.822t21.829-53.583v-29.769h-994.284v29.769q0 30.761 21.829 53.583t52.591 22.822zM89.307 484.907h994.284v-341.351q0-31.754-21.829-53.583t-52.591-21.829h-845.439q-29.769 0-52.591 21.829t-21.829 53.583zM826.585 244.772v-87.322h181.591v87.322z" />
<glyph unicode="&#xe606;" glyph-name="glyphicon-file" data-tags="glyphicon-file" horiz-adv-x="863" d="M99.231 819.314h434.627v-231.206h229.221v-665.833h-663.848zM580.495 819.314l182.583-184.568h-182.583z" />
<glyph unicode="&#xe607;" glyph-name="glyphicon-globe" data-tags="glyphicon-globe" horiz-adv-x="1044" d="M521.95 841.143q184.568 0 316.544-132.968t132.968-316.544q0-172.66-117.091-301.659l-20.837-2.977-25.799 33.739-71.446 19.844-35.724-20.837-45.645 14.885v33.739l-41.678 44.654-26.792-24.807-25.799 35.724 7.94 38.701 56.56 21.829 26.792-2.977 24.807-33.739 7.94 14.885-8.932 30.761 32.746 31.754 30.761 50.606 88.314 50.606-55.568 74.423-117.091 21.829-19.844 64.5-110.144 74.423-125.030-5.955-117.091 21.829-61.523-33.739 17.859-23.814-45.645-53.583-7.94-82.359 71.446 46.637 29.769-58.545 82.359-41.678-7.94-14.885 41.678-107.168 10.917-2.977 90.299-86.329 2.977-53.583 168.691-74.423-4.962-98.239 13.894-19.844q-71.446-30.761-162.737-30.761-184.568 0-317.535 131.977t-131.977 317.535q0 184.568 131.977 316.544t317.535 132.968zM678.733 719.091l-89.307-23.814 99.231-66.485 14.885-55.568 74.423-14.885 55.568 29.769 3.97 59.538zM706.517 235.84l-23.814-17.859 11.91-1.985 11.91 10.917 35.724-13.894 19.844 13.894zM776.971 232.865l-10.917-7.94 5.955-8.932 13.894 10.917zM795.824 230.88l-5.955-3.97 2.977-5.955 5.955 2.977z" />
<glyph unicode="&#xe608;" glyph-name="glyphicon-menu-hamburger" data-tags="glyphicon-menu-hamburger" horiz-adv-x="833" d="M99.231 653.599h634.079v-99.231h-634.079zM99.231 442.238h634.079v-101.215h-634.079zM99.231 229.887h634.079v-100.223h-634.079z" />
<glyph unicode="&#xe609;" glyph-name="glyphicon-menu-left" data-tags="glyphicon-menu-left" horiz-adv-x="554" d="M358.219 795.498h114.113l-285.783-423.712 285.783-422.72h-114.113l-270.899 401.881q-7.94 9.925-7.94 21.829 0 10.917 7.94 20.837z" />
<glyph unicode="&#xe60a;" glyph-name="glyphicon-menu-right" data-tags="glyphicon-menu-right" horiz-adv-x="555" d="M79.383 795.498h115.106l273.874-401.881q4.962-6.947 4.962-20.837t-4.962-21.829l-273.874-401.881h-115.106l285.783 422.72z" />
<glyph unicode="&#xe60b;" glyph-name="glyphicon-new-window" data-tags="glyphicon-new-window" horiz-adv-x="935" d="M135.945 749.851h214.336v-107.168h-153.807v-542.789h541.796v154.799h107.168v-214.336q0-19.844-13.894-33.739t-31.754-13.894h-663.848q-19.844 0-33.739 13.894t-12.902 33.739v661.863q0 19.844 12.902 33.739t33.739 13.894zM522.942 749.851h276.851q19.844 0 32.746-12.902t12.902-31.754v-280.82l-107.168-91.292v236.167l-250.059-251.051-74.423 74.423 252.044 250.059h-232.199z" />
<glyph unicode="&#xe60c;" glyph-name="glyphicon-oil" data-tags="glyphicon-oil" horiz-adv-x="914" d="M198.46 819.314h399.897q33.739 0 56.56-23.814t23.814-56.56v-110.144l145.867-122.053v-299.675l-145.867-123.046v-161.745h-559.657v816.663q0 33.739 22.822 56.56t56.56 23.814zM198.46 747.867v-261.967h404.858v261.967zM678.733 536.507v-214.336l68.47 53.583v104.192z" />
<glyph unicode="&#xe60d;" glyph-name="glyphicon-play-circle" data-tags="glyphicon-play-circle" horiz-adv-x="1044" d="M521.95 841.143q184.568 0 316.544-132.968t132.968-316.544q0-184.568-132.968-317.535t-316.544-131.977q-184.568 0-317.535 131.977t-131.977 317.535q0 184.568 131.977 316.544t317.535 132.968zM521.95 780.613q-158.768 0-273.874-115.106t-114.113-273.874q0-159.761 114.113-274.866t273.874-114.113q158.768 0 273.874 115.106t115.106 273.874-115.106 273.874-273.874 115.106zM404.858 593.069l306.62-202.429-306.62-202.429z" />
<glyph unicode="&#xe60e;" glyph-name="glyphicon-remove" data-tags="glyphicon-remove" horiz-adv-x="717" d="M166.706 649.629l191.514-190.522 190.522 190.522 67.478-67.478-190.522-190.522 190.522-191.514-67.478-67.478-190.522 192.506-191.514-192.506-67.478 67.478 192.506 191.514-192.506 190.522z" />
<glyph unicode="&#xe60f;" glyph-name="glyphicon-search" data-tags="glyphicon-search" horiz-adv-x="726" d="M298.683 664.513q89.307 0 150.83-62.515t61.523-148.845q0-64.5-32.746-113.121l166.706-166.706-68.47-67.478-164.722 166.706q-51.598-32.746-113.121-32.746-89.307 0-151.822 61.523t-61.523 151.822q0 87.322 61.523 148.845t151.822 62.515zM298.683 570.245q-48.621 0-83.352-34.731t-34.731-82.359q0-49.613 33.739-84.344t84.344-33.739q49.613 0 83.352 33.739t33.739 84.344q0 49.613-34.731 83.352t-82.359 33.739z" />
<glyph unicode="&#xe610;" glyph-name="glyphicon-share-alt" data-tags="glyphicon-share-alt" horiz-adv-x="757" d="M551.719 748.86q44.654 0 75.415-30.761t31.754-74.423q0-44.654-31.754-76.407t-75.415-30.761q-24.807 0-44.654 9.925l-214.336-172.66 214.336-172.66q25.799 10.917 44.654 10.917 44.654 0 75.415-31.754t31.754-75.415q0-43.662-31.754-75.415t-75.415-30.761q-43.662 0-74.423 30.761t-30.761 75.415q0 15.875 0.992 23.814l-200.445 160.753q-29.769-22.822-65.493-22.822-43.662 0-75.415 30.761t-31.754 76.407q0 44.654 31.754 75.415t75.415 31.754q36.716 0 65.493-23.814l200.445 162.737q0 6.947-0.992 23.814 0 43.662 30.761 74.423t74.423 30.761z" />
<glyph unicode="&#xe611;" glyph-name="glyphicon-stats" data-tags="glyphicon-stats" horiz-adv-x="1009" d="M708.502 845.113h193.498v-897.038h-193.498zM407.835 587.115h195.483v-639.041h-195.483zM107.168 359.878h195.483v-411.804h-195.483z" />
<glyph unicode="&#xe612;" glyph-name="glyphicon-tag" data-tags="glyphicon-tag" horiz-adv-x="872" d="M229.221 594.061h562.633v-404.858h-562.633l-169.683 198.46zM260.975 453.154q-25.799 0-43.662-18.852t-17.859-42.671q0-25.799 17.859-43.662t43.662-16.867q24.807 0 41.678 17.859t17.859 42.671q0 24.807-17.859 42.671t-41.678 18.852z" />
<glyph unicode="&#xe613;" glyph-name="glyphicon-th-list" data-tags="glyphicon-th-list" horiz-adv-x="1004" d="M99.231 653.599h100.223v-99.231h-100.223zM301.659 653.599h603.318v-99.231h-603.318zM99.231 442.238h100.223v-101.215h-100.223zM301.659 442.238h603.318v-101.215h-603.318zM99.231 229.887h100.223v-100.223h-100.223zM301.659 229.887h603.318v-100.223h-603.318z" />
<glyph unicode="&#xe614;" glyph-name="glyphicon-th" data-tags="glyphicon-th" horiz-adv-x="955" d="M99.231 653.599h168.691v-167.698h-168.691zM392.951 653.599h169.683v-167.698h-169.683zM687.664 653.599h167.698v-167.698h-167.698zM99.231 298.355h168.691v-168.691h-168.691zM392.951 298.355h169.683v-168.691h-169.683zM687.664 298.355h167.698v-168.691h-167.698z" />
<glyph unicode="&#xe615;" glyph-name="glyphicon-user" data-tags="glyphicon-user" horiz-adv-x="951" d="M475.311 847.098q99.231 0 179.606-91.292t81.367-217.314q0-112.129-68.47-221.282h-74.423v-50.606q23.814-14.885 130.984-54.576t138.922-63.508 37.709-78.391v-127.015h-851.393v127.015q3.97 64.5 54.576 90.299t149.837 62.515l50.606 18.852q36.716 13.894 53.583 24.807v50.606h-76.407q-68.47 110.144-68.47 223.267 0 127.015 81.367 216.321t180.598 90.299zM641.026 686.345q-36.716-36.716-136.937-75.415t-223.267-40.686v-4.962q0-91.292 55.568-163.73t138.922-71.446q85.337 0 138.922 70.455t54.576 164.722q0 67.478-27.784 121.061z" />
<glyph unicode="&#xe616;" glyph-name="glyphicon-media" data-tags="glyphicon-media" d="M268.914 788.552h57.553q35.724 0 66.485-17.859t48.621-48.621 18.852-67.478v-39.694h-162.737v-59.538h162.737v-69.462h-162.737v-59.538h162.737v-69.462h-162.737v-59.538h162.737v-35.724q0-36.716-18.852-67.478t-48.621-48.621-66.485-17.859h-57.553q-35.724 0-66.485 17.859t-48.621 48.621-17.859 67.478v392.951q0 36.716 17.859 67.478t48.621 48.621 66.485 17.859zM15.875 395.601h59.538v-133.961q0-52.591 25.799-97.246t70.455-70.455 97.246-25.799h57.553q52.591 0 96.254 25.799t70.455 70.455 26.792 97.246v133.961h59.538v-133.961q0-68.47-33.739-126.023t-90.299-92.284-124.038-35.724v-125.030h106.176v-59.538h-272.882v59.538h106.176v125.030h-1.985q-68.47 0-127.015 33.739t-92.284 93.277-33.739 127.015z" />
<glyph unicode="&#xe617;" glyph-name="glyphicon-chevron-right-old" data-tags="glyphicon-chevron-right-old" horiz-adv-x="585" d="M188.537 553.376h70.455l163.73-162.737q6.947-5.955 6.947-16.867t-6.947-18.852l-164.722-162.737h-70.455l181.591 180.598z" />
<glyph unicode="&#xe700;" glyph-name="globe-country" data-tags="globe-country" d="M514.506-167.601c-275.962 0-505.152 229.19-505.152 505.152s229.19 505.152 505.152 505.152c275.962 0 505.152-224.512 505.152-505.152s-229.19-505.152-505.152-505.152zM514.506 767.867c-238.544 0-430.315-191.771-430.315-430.315s191.771-430.315 430.315-430.315c238.544 0 434.993 191.771 434.993 430.315s-196.448 430.315-434.993 430.315zM514.506-167.601c-163.707 0-289.995 224.512-289.995 505.152s126.288 505.152 289.995 505.152c163.707 0 289.995-219.835 289.995-505.152 0-280.641-126.288-505.152-289.995-505.152zM514.506 767.867c-121.611 0-219.835-196.448-219.835-430.315s102.9-430.315 219.835-430.315c121.611 0 219.835 196.448 219.835 430.315s-98.225 430.315-219.835 430.315zM477.089 805.285h70.159v-935.469h-70.159v935.469zM46.774 374.97h935.469v-70.159h-935.469v70.159zM514.506 538.677c-135.642 0-271.286 32.742-360.155 93.546l37.418 56.13c79.514-51.45 196.448-79.514 322.737-79.514 121.611 0 233.866 28.062 313.382 79.514l37.418-60.804c-88.87-56.13-219.835-88.87-350.801-88.87zM191.771-27.28l-37.418 56.13c88.87 60.804 224.512 93.546 360.155 93.546 130.966 0 261.932-32.742 350.801-88.87l-37.418-60.804c-79.514 56.13-191.771 84.192-313.382 84.192-126.288 0-243.222-28.062-322.737-84.192z" />
<glyph unicode="&#xe701;" glyph-name="carrot-right-bold" data-tags="carrot-right-bold" d="M171.168-63.164l290.985 393.685-290.985 376.569 256.751 136.934 376.569-496.386v-17.118l-376.569-513.502-256.751 119.818z" />
<glyph unicode="&#xe702;" glyph-name="comment-filled" data-tags="comment-filled" d="M869.935 753.405h-761.193c-60.412 0-108.742-48.329-108.742-102.7v-410.802c0-54.371 48.329-102.7 108.742-102.7h60.412v-78.537c0-42.288 24.166-78.537 66.454-96.658 12.083-6.042 30.205-6.042 42.288-6.042 24.166 0 48.329 6.042 72.495 24.166l211.442 157.071h302.060c60.412 0 108.742 48.329 108.742 102.7v410.802c12.083 54.371-36.246 102.7-102.7 102.7z" />
<glyph unicode="&#xe703;" glyph-name="comment-outline" data-tags="comment-outline" d="M869.935 753.405h-761.193c-60.412 0-108.742-48.329-108.742-102.7v-410.802c0-54.371 48.329-102.7 108.742-102.7h60.412v-78.537c0-42.288 24.166-78.537 66.454-96.658 12.083-6.042 30.205-6.042 42.288-6.042 24.166 0 48.329 6.042 72.495 24.166l211.442 157.071h302.060c60.412 0 108.742 48.329 108.742 102.7v410.802c12.083 54.371-36.246 102.7-102.7 102.7zM120.825 251.985v380.596h743.069v-380.596h-332.266l-235.608-175.195v175.195h-175.195z" />
<glyph unicode="&#xe704;" glyph-name="expand-minus" data-tags="expand-minus" d="M0 416.104h1027.006v-171.168h-1027.006v171.168z" />
<glyph unicode="&#xe705;" glyph-name="expand-plus" data-tags="expand-plus" d="M1027.006 416.104h-427.919v427.919h-171.168v-427.919h-427.919v-171.168h427.919v-427.919h171.168v427.919h427.919z" />
<glyph unicode="&#xe706;" glyph-name="like-filled" data-tags="like-filled" d="M1032.41 265.657v108.105c0 54.054-64.863 108.105-129.727 108.105h-194.591c16.216 70.269 27.025 97.296 27.025 167.564v37.837c0 43.242-16.216 75.675-86.484 75.675h-16.216c-37.837 0-75.675-21.621-81.079-54.054l-16.216-37.837c-27.025-64.863-64.863-129.727-113.512-189.186-21.621-16.216-70.269-48.647-97.296-48.647 0 0-5.404 0-16.216 0-16.216 32.433-54.054 54.054-91.891 54.054h-108.105c-59.458 0-108.105-48.647-108.105-108.105v-335.128c0-59.458 48.647-108.105 108.105-108.105h108.105c32.433 0 64.863 16.216 86.484 43.242 54.054-16.216 140.537-43.242 151.349-43.242h389.181c32.433 0 97.296 10.812 129.727 54.054s48.647 86.484 59.458 118.916h-5.404v21.621c5.404 48.647 5.404 91.891 5.404 135.133z" />
<glyph unicode="&#xe707;" glyph-name="like-outline" data-tags="like-outline" d="M1032.41 265.657v108.105c0 54.054-64.863 108.105-129.727 108.105h-194.591c16.216 70.269 27.025 97.296 27.025 167.564v37.837c0 43.242-16.216 75.675-86.484 75.675h-16.216c-37.837 0-75.675-21.621-81.079-54.054l-16.216-37.837c-27.025-64.863-64.863-129.727-113.512-189.186-21.621-16.216-70.269-48.647-97.296-48.647 0 0-5.404 0-16.216 0-16.216 32.433-54.054 54.054-91.891 54.054h-108.105c-59.458 0-108.105-48.647-108.105-108.105v-335.128c0-59.458 48.647-108.105 108.105-108.105h108.105c32.433 0 64.863 16.216 86.484 43.242 54.054-16.216 140.537-43.242 151.349-43.242h389.181c32.433 0 97.296 10.812 129.727 54.054 70.269 113.512 59.458 189.186 59.458 275.67zM216.212-10.012h-108.105c-32.433 0-54.054 27.025-54.054 54.054v335.128c0 32.433 21.621 54.054 54.054 54.054h108.105c16.216 0 32.433-10.812 43.242-27.025 0-75.675 0-313.507 0-389.181-10.812-16.216-27.025-27.025-43.242-27.025zM924.306 22.418c-16.216-21.621-59.458-32.433-86.484-32.433h-383.776c-16.216 5.404-75.675 21.621-135.133 37.837 0 5.404 0 10.812 0 16.216v335.128c48.647 0 118.916 43.242 140.537 70.269 59.458 59.458 97.296 129.727 124.321 210.806l10.812 32.433c5.404 5.404 16.216 16.216 32.433 16.216h16.216c27.025 0 32.433-5.404 32.433-5.404s0-5.404 0-16.216v-32.433c0-48.647-5.404-70.269-16.216-113.512-5.404-10.812-5.404-27.025-10.812-43.242l-10.812-64.863h259.454c0 0 0 0 0 0 21.621 0 43.242-10.812 59.458-27.025 16.216-5.404 21.621-21.621 21.621-27.025v-108.105c0-10.812 0-27.025 0-37.837 0-70.269 0-129.727-54.054-210.806z" />
<glyph unicode="&#xe708;" glyph-name="play-circle-small" data-tags="play-circle-small" d="M0 840.012v-1026.003l879.431 513.001z" />
<glyph unicode="&#xe709;" glyph-name="triangle-down" data-tags="triangle-down" d="M513.502 16.714l513.502 627.615h-1027.006z" />
<glyph unicode="&#xe710;" glyph-name="triangle-up" data-tags="triangle-up" d="M513.502 644.328l-513.502-627.615h1027.006z" />
<glyph unicode="&#xe900;" glyph-name="glyphicon-chevron-bold-down" data-tags="glyphicon-chevron-bold-down" horiz-adv-x="839" d="M418.432 263.66l361.209 362.213v-240.337l-325.47-329.485q-16.864-13.855-36.744-13.855c-0.254-0.005-0.559-0.008-0.859-0.008-12.885 0-24.527 5.306-32.864 13.854l-325.479 326.483v241.341z" />
<glyph unicode="&#xe901;" glyph-name="glyphicon-chevron-bold-left" data-tags="glyphicon-chevron-bold-left" horiz-adv-x="671" d="M264.632 334.536l362.213-361.209h-240.337l-329.485 325.47q-13.855 16.864-13.855 36.744c-0.005 0.254-0.008 0.559-0.008 0.859 0 12.885 5.306 24.527 13.854 32.864l326.483 325.479h241.341z" />
<glyph unicode="&#xe902;" glyph-name="glyphicon-chevron-bold-right" data-tags="glyphicon-chevron-bold-right" horiz-adv-x="671" d="M45.176 694.741h241.341l326.474-325.47c9.236-9.236 13.855-20.48 13.855-33.732s-4.619-25.5-13.855-36.744l-329.485-325.47h-240.337l362.213 361.209-360.205 360.205z" />
<glyph unicode="&#xe903;" glyph-name="glyphicon-chevron-bold-up" data-tags="glyphicon-chevron-bold-up" horiz-adv-x="839" d="M418.432 404.408l-361.209-362.213v240.337l325.47 329.485q16.864 13.855 36.744 13.855c0.254 0.005 0.559 0.008 0.859 0.008 12.885 0 24.527-5.306 32.864-13.854l325.479-326.483v-241.341z" />
<glyph unicode="&#xe904;" glyph-name="glyphicon-chevron-archive-mail" data-tags="glyphicon-chevron-archive-mail" d="M983.252 669.011h-940.503c-25.65 0-42.751-17.101-42.751-42.751v-628.427c0-25.65 17.101-42.751 42.751-42.751h940.503c25.65 0 42.751 17.101 42.751 42.751v628.427c0 25.65-17.101 42.751-42.751 42.751zM85.499 40.584v513.001l414.677-312.076c4.275-4.275 8.549-4.275 12.826-4.275s8.549 0 12.826 4.275l414.677 312.076v-513.001h-855.002z" />
<glyph unicode="&#xe905;" glyph-name="glyphicon-chevron-calendar" data-tags="glyphicon-chevron-calendar" d="M1014.851-99.004h-1003.698v758.351h278.805v-66.913h-211.892v-624.523h869.872v626.753h-100.37v66.913h167.283zM401.48 661.577h334.566v-66.913h-334.566v66.913zM223.045 427.38h111.522v-111.522h-111.522v111.522zM468.392 427.38h111.522v-111.522h-111.522v111.522zM713.741 427.38h111.522v-111.522h-111.522v111.522zM223.045 204.336h111.522v-111.522h-111.522v111.522zM468.392 204.336h111.522v-111.522h-111.522v111.522zM713.741 204.336h111.522v-111.522h-111.522v111.522zM278.805 750.795h44.61v-245.349h-44.61v245.349zM724.893 750.795h44.61v-245.349h-44.61v245.349z" />
<glyph unicode="&#xe906;" glyph-name="glyphicon-chevron-chat-now" data-tags="glyphicon-chevron-chat-now" d="M731.027 70.509l102.6-100.463c8.549-8.549 21.375-8.549 29.925 0 4.275 4.275 6.412 8.549 6.412 14.963v85.499h70.538c12.826 0 21.375 8.549 21.375 21.375v299.251c0 12.826-8.549 21.375-21.375 21.375h-149.625v-183.826l-384.751-4.275v-132.525c0-12.826 8.549-21.375 21.375-21.375h303.525zM188.101 17.072v190.239h-123.975v483.076h748.128v-483.076h-436.051l-188.101-190.239zM106.875 250.060h123.975v-128.25l126.113 128.25h412.538v397.576h-662.626v-397.576zM258.638 388.998c-25.65 0-44.888 19.238-44.888 42.751s21.375 42.751 44.888 42.751 44.888-19.238 44.888-42.751-19.238-42.751-44.888-42.751zM436.051 388.998c-25.65 0-44.888 19.238-44.888 42.751s21.375 42.751 44.888 42.751 44.888-19.238 44.888-42.751-19.238-42.751-44.888-42.751zM611.326 388.998c-25.65 0-44.888 19.238-44.888 42.751s21.375 42.751 44.888 42.751 44.888-19.238 44.888-42.751-19.238-42.751-44.888-42.751z" />
<glyph unicode="&#xe907;" glyph-name="glyphicon-chevron-email" data-tags="glyphicon-chevron-email" d="M1021.728 660.461c0 0 0 0 0 0 0 4.275-4.275 4.275-4.275 4.275 0 4.275-4.275 4.275-4.275 8.549 0 0-4.275 4.275-4.275 4.275-4.275 4.275-4.275 4.275-8.549 4.275 0 0-4.275 0-4.275 0-4.275 0-8.549 4.275-17.101 4.275h-936.227c-4.275 0-8.549 0-17.101-4.275 0 0-4.275 0-4.275 0-4.275 0-4.275-4.275-8.549-4.275 0 0-4.275-4.275-4.275-4.275s0-4.275-4.275-4.275c0 0 0-4.275-4.275-4.275 0 0 0 0 0 0 0-8.549 0-12.826 0-17.101 0 0 0 0 0 0v-628.427c0-25.65 17.101-42.751 42.751-42.751h940.503c25.65 0 42.751 17.101 42.751 42.751v628.427c0 0 0 0 0 0 0 4.275 0 8.549-4.275 12.826zM859.277 604.886l-346.276-269.326-346.276 269.326h692.552zM85.499 61.96v500.176l401.851-312.076c8.549-8.549 17.101-8.549 25.65-8.549s17.101 4.275 25.65 8.549l401.851 312.076v-495.901h-855.002z" />
<glyph unicode="&#xe908;" glyph-name="glyphicon-chevron-hotline" data-tags="glyphicon-chevron-hotline" d="M795.153 540.761c-25.65 132.525-141.076 230.85-282.151 230.85s-256.5-98.325-282.151-230.85h-68.401c8.549 59.849 34.199 119.701 72.675 162.45 64.126 85.499 166.726 136.8 277.875 136.8 175.275 0 324.901-128.25 350.551-299.251h-68.401zM799.428 498.011h68.401c0 0 0 0 0 0 89.776 0 158.175-76.95 158.175-171.001v-115.426c0-94.051-72.675-171.001-162.45-171.001h-34.199c-17.101 0-34.199 17.101-34.199 34.199v410.401c4.275 4.275 4.275 8.549 4.275 12.826zM226.575 498.011c0-4.275 0-8.549 0-12.826v-444.601c0-42.751 34.199-81.225 81.225-81.225h98.325c0-21.375 0-64.126 0-68.401h-98.325c-81.225 0-149.625 68.401-149.625 149.625-89.776 0-158.175 81.225-158.175 171.001v115.426c0 94.051 68.401 171.001 158.175 171.001 0 0 0 0 0 0h68.401zM534.376-185.991h-42.751c-59.849 0-106.875 47.025-106.875 106.875s47.025 106.875 106.875 106.875h42.751c59.849 0 106.875-47.025 106.875-106.875s-47.025-106.875-106.875-106.875zM491.627-36.366c-25.65 0-42.751-17.101-42.751-42.751s17.101-42.751 42.751-42.751h42.751c25.65 0 42.751 17.101 42.751 42.751s-17.101 42.751-42.751 42.751h-42.751z" />
<glyph unicode="&#xe909;" glyph-name="glyphicon-chevron-news-archive" data-tags="glyphicon-chevron-news-archive" d="M1014.345 364.319c0 2.331 0 2.331 0 4.665s-2.331 4.665-2.331 4.665l-230.85 314.796c-4.665 6.996-13.992 11.658-20.985 11.658h-494.347c-9.327 0-16.323-4.665-20.985-11.658l-228.519-312.465v-2.331c0-2.331-2.331-2.331-2.331-4.665s0-2.331 0-4.665v-384.751c0-13.992 11.658-25.65 25.65-25.65h949.053c13.992 0 25.65 11.658 25.65 25.65v384.751zM748.516 646.47l188.877-258.833h-216.86c-13.992 0-23.319-9.327-25.65-23.319-11.658-72.287-65.292-153.9-181.882-153.9-153.9 0-186.546 107.265-193.542 153.9-2.331 13.992-13.992 23.319-25.65 23.319h-202.869l188.877 258.833h468.697z" />
<glyph unicode="&#xe90a;" glyph-name="glyphicon-chevron-not-on-target" data-tags="glyphicon-chevron-not-on-target" d="M51.319 327.010l461.673 461.673 461.673-461.673-461.673-461.673-461.673 461.673z" />
<glyph unicode="&#xe90b;" glyph-name="glyphicon-chevron-on-target" data-tags="glyphicon-chevron-on-target" d="M513.001-185.991c287.281 0 513.001 225.72 513.001 513.001s-225.72 513.001-513.001 513.001-513.001-225.72-513.001-513.001 225.72-513.001 513.001-513.001z" />
<glyph unicode="&#xe90c;" glyph-name="glyphicon-chevron-some-gaps" data-tags="glyphicon-chevron-some-gaps" d="M513.001 840.012l513.001-1026.003h-1026.003z" />
<glyph unicode="&#xe90d;" glyph-name="glyphicon-chevron-view-counts" data-tags="glyphicon-chevron-view-counts" d="M513.001 50.779c-185.47 0-359.101 86.816-461.701 232.823-19.73 27.623-19.73 63.139 0 90.763 102.6 142.063 276.231 228.878 461.701 228.878s359.101-86.816 461.701-232.823c19.73-27.623 19.73-63.139 0-90.763-102.6-142.063-276.231-228.878-461.701-228.878zM513.001 524.319c-161.793 0-307.801-74.977-394.616-197.308 86.816-122.33 232.823-197.308 394.616-197.308s307.801 74.977 394.616 197.308c-86.816 122.33-232.823 197.308-394.616 197.308zM493.271 484.856c-7.893 0-15.784 0-23.677-3.946-3.946 0-3.946-3.946-3.946-3.946 0-3.946 0-3.946 3.946-7.893 23.677-11.839 39.462-35.516 39.462-63.139 0-39.462-31.57-71.030-71.030-71.030-27.623 0-55.246 15.784-67.085 43.407 0 3.946-3.946 3.946-7.893 3.946s-3.946-3.946-3.946-3.946c-3.946-11.839-3.946-23.677-3.946-31.57 0-74.977 63.139-138.116 138.116-138.116s138.116 63.139 138.116 138.116-63.139 138.116-138.116 138.116z" />
<glyph unicode="&#xe90e;" glyph-name="icon_LeftCaret" data-tags="icon_LeftCaret" d="M680.107 104.107l-215.893 215.893 215.893 215.893-65.707 65.707-281.6-281.6 281.6-281.6z" />
<glyph unicode="&#xe90f;" glyph-name="icon_RightCaret" data-tags="icon_RightCaret" d="M332.8 104.107l215.893 215.893-215.893 215.893 65.707 65.707 281.6-281.6-281.6-281.6z" />
<glyph unicode="&#xe910;" glyph-name="icon_upCaret" data-tags="icon_upCaret" d="M296.107 140.8l215.893 215.893 215.893-215.893 65.707 65.707-281.6 281.6-281.6-281.6z" />
<glyph unicode="&#xe911;" glyph-name="icon_downCaret" data-tags="icon_downCaret" d="M727.893 499.2l-215.893-215.893-215.893 215.893-65.707-65.707 281.6-281.6 281.6 281.6z" />
<glyph unicode="&#xe912;" glyph-name="icon_DownloadArrow" data-tags="icon_DownloadArrow" d="M532.48 509.44v-312.32h-51.2v312.32zM611.658 348.342l36.204-36.204-140.982-140.982-140.982 140.982 36.204 36.204 104.778-104.758zM640 156.16v-51.2h-266.24v51.2z" />
<glyph unicode="&#xe913;" glyph-name="icon_OpenWindow_C21" data-tags="icon_OpenWindow_C21" d="M709.899 533.021c9.938 10.057 26.146 10.154 36.203 0.216 9.283-9.173 10.080-23.69 2.331-33.779l-2.115-2.424-244.888-247.827c-9.938-10.057-26.146-10.154-36.203-0.216-9.283 9.173-10.080 23.69-2.331 33.779l2.115 2.424 244.888 247.827zM742.4 548.984c13.129 0 23.949-9.883 25.428-22.614l0.172-2.986v-146.805c0-14.138-11.462-25.6-25.6-25.6-13.129 0-23.949 9.883-25.428 22.614l-0.172 2.986v121.213l-122.191-0.008c-13.129 0-23.949 9.883-25.428 22.614l-0.172 2.986c0 13.129 9.883 23.949 22.614 25.428l2.986 0.172h147.791zM486.191 483.461c14.138 0 25.6-11.462 25.6-25.6 0-13.129-9.883-23.949-22.614-25.428l-2.986-0.172-177.481 0.021v-339.712h339.712l-0.003 177.462c0 13.129 9.882 23.949 22.614 25.428l2.985 0.172c13.129 0 23.949-9.882 25.428-22.614l0.172-2.985 0.006-203.068c0-13.129-9.882-23.95-22.614-25.429l-2.986-0.172h-390.896c-13.129 0-23.949 9.883-25.428 22.614l-0.172 2.986v390.896c0 13.129 9.883 23.949 22.614 25.428l2.986 0.172h203.062z" />
<glyph unicode="&#xe914;" glyph-name="icon_PlayBtn_N04" data-tags="icon_PlayBtn_N04" d="M512 716.8c-219.144 0-396.8-177.677-396.8-396.8s177.656-396.8 396.8-396.8c219.144 0 396.8 177.677 396.8 396.8s-177.656 396.8-396.8 396.8zM512 665.6c190.866 0 345.6-154.752 345.6-345.6s-154.734-345.6-345.6-345.6c-190.866 0-345.6 154.752-345.6 345.6s154.734 345.6 345.6 345.6zM435.2 435.2v-230.4c0-10.127 11.203-16.243 19.722-10.767l179.2 115.2c7.838 5.039 7.838 16.496 0 21.534l-179.2 115.2c-8.519 5.476-19.722-0.64-19.722-10.767z" />
<glyph unicode="&#xe915;" glyph-name="icon_Social_Email" data-tags="icon_Social_Email" d="M805.517 479.23v-325.515c0-35.41-28.705-64.123-64.115-64.123v0h-459.688c-35.41 0-64.115 28.713-64.115 64.123v0 325.515l293.959-240.514 293.959 240.514zM741.402 550.4c22.269 0 41.885-11.377 53.373-28.625v0l-283.217-231.727-283.217 231.727c11.488 17.248 31.104 28.625 53.373 28.625v0z" />
<glyph unicode="&#xe916;" glyph-name="icon_Social_Facebook" data-tags="icon_Social_Facebook" d="M612.103 293.157l11.941 82.765h-74.696v53.709c0 22.643 10.434 44.714 43.891 44.714h33.961v70.462c0 0-30.822 5.592-60.288 5.592-61.519 0-101.728-39.638-101.728-111.397v-63.080h-68.384v-82.765h68.384v-200.077c13.712-2.288 27.766-3.48 42.082-3.48s28.37 1.192 42.082 3.48v200.077h62.755z" />
<glyph unicode="&#xe917;" glyph-name="icon_Social_Instagram" data-tags="icon_Social_Instagram" d="M511.928 550.255c-62.554 0-70.397-0.265-94.964-1.386-24.516-1.118-41.259-5.012-55.909-10.706-15.146-5.885-27.991-13.761-40.796-26.565s-20.68-25.65-26.565-40.796c-5.694-14.651-9.588-31.394-10.706-55.909-1.121-24.567-1.386-32.411-1.386-94.964s0.265-70.396 1.386-94.963c1.118-24.516 5.012-41.259 10.706-55.909 5.885-15.146 13.761-27.991 26.565-40.796s25.65-20.68 40.796-26.566c14.651-5.693 31.394-9.587 55.909-10.705 24.567-1.121 32.411-1.386 94.964-1.386s70.396 0.265 94.963 1.386c24.516 1.118 41.259 5.012 55.909 10.705 15.146 5.886 27.991 13.762 40.796 26.566s20.68 25.65 26.566 40.796c5.693 14.651 9.587 31.394 10.705 55.909 1.121 24.567 1.386 32.411 1.386 94.963s-0.265 70.397-1.386 94.964c-1.118 24.516-5.012 41.259-10.705 55.909-5.886 15.146-13.762 27.991-26.566 40.796s-25.65 20.68-40.796 26.565c-14.651 5.694-31.394 9.588-55.909 10.706-24.567 1.121-32.411 1.386-94.963 1.386zM511.928 508.754c61.499 0 68.784-0.235 93.072-1.343 22.457-1.024 34.652-4.776 42.768-7.931 10.751-4.178 18.424-9.169 26.483-17.23s13.051-15.732 17.23-26.483c3.154-8.116 6.907-20.312 7.931-42.768 1.108-24.287 1.343-31.572 1.343-93.072s-0.235-68.784-1.343-93.072c-1.024-22.457-4.776-34.652-7.931-42.768-4.178-10.751-9.169-18.424-17.23-26.483s-15.732-13.051-26.483-17.23c-8.116-3.154-20.312-6.907-42.768-7.931-24.283-1.108-31.568-1.343-93.072-1.343s-68.788 0.235-93.072 1.343c-22.457 1.024-34.652 4.776-42.768 7.931-10.751 4.178-18.424 9.169-26.483 17.23s-13.051 15.732-17.23 26.483c-3.154 8.116-6.907 20.312-7.931 42.768-1.108 24.287-1.343 31.572-1.343 93.072s0.235 68.785 1.343 93.072c1.024 22.457 4.776 34.652 7.931 42.768 4.178 10.751 9.169 18.424 17.23 26.483s15.732 13.051 26.483 17.23c8.116 3.154 20.312 6.907 42.768 7.931 24.287 1.108 31.572 1.343 93.072 1.343v0zM511.928 243.152c-42.403 0-76.776 34.373-76.776 76.775s34.373 76.776 76.776 76.776c42.402 0 76.775-34.373 76.775-76.776s-34.373-76.775-76.775-76.775zM511.928 438.203c-65.323 0-118.277-52.954-118.277-118.277s52.954-118.276 118.277-118.276c65.322 0 118.276 52.954 118.276 118.276s-52.954 118.277-118.276 118.277v0zM662.516 442.876c0-15.265-12.375-27.639-27.64-27.639s-27.639 12.374-27.639 27.639c0 15.265 12.375 27.64 27.639 27.64s27.64-12.375 27.64-27.64z" />
<glyph unicode="&#xe918;" glyph-name="icon_Social_LinkedIn" data-tags="icon_Social_LinkedIn" d="M705.13 127.583h-85.063v133.19c0 31.759-0.582 72.613-44.229 72.613-44.293 0-51.092-34.597-51.092-70.317v-135.486h-85.047v273.877h81.644v-37.422h1.14c11.366 21.533 39.128 44.233 80.54 44.233 86.195 0 102.109-56.731 102.109-130.468v-150.22zM343.767 438.899c-27.284 0-49.367 22.115-49.367 49.367 0 27.22 22.083 49.335 49.367 49.335 27.212 0 49.327-22.115 49.327-49.335 0-27.252-22.115-49.367-49.327-49.367zM301.187 127.583h85.123v273.877h-85.123z" />
<glyph unicode="&#xe919;" glyph-name="icon_Social_Twitter" data-tags="icon_Social_Twitter" d="M412.273 89.6c202.875 0 313.819 177.266 313.819 330.977 0 5.037-0.097 10.052-0.314 15.039 21.534 16.418 40.253 36.904 55.022 60.23-19.762-9.258-41.032-15.499-63.34-18.314 22.771 14.399 40.255 37.188 48.5 64.349-21.317-13.324-44.911-23.018-70.034-28.234-20.128 22.609-48.793 36.752-80.511 36.752-60.917 0-110.313-52.097-110.313-116.319 0-9.131 0.97-18.005 2.862-26.524-91.665 4.86-172.952 51.152-227.345 121.538-9.481-17.187-14.939-37.163-14.939-58.468 0-40.358 19.474-75.986 49.083-96.828-18.091 0.587-35.090 5.831-49.956 14.554-0.024-0.485-0.024-0.973-0.024-1.483 0-56.345 38.023-103.378 88.489-114.044-9.264-2.658-19.012-4.094-29.076-4.094-7.107 0-14.018 0.744-20.734 2.1 14.040-46.217 54.756-79.848 103.039-80.796-37.759-31.203-85.313-49.795-136.989-49.795-8.901 0-17.678 0.538-26.312 1.613 48.816-32.994 106.774-52.252 169.073-52.252z" />
<glyph unicode="&#xe91a;" glyph-name="icon_YoutubePlayBtn" data-tags="icon_YoutubePlayBtn" d="M451.782 222.753v194.495l153.891-97.251-153.891-97.244zM794.095 478.445c-6.771 28.324-26.723 50.629-52.055 58.198-45.916 13.757-230.040 13.757-230.040 13.757s-184.124 0-230.040-13.757c-25.332-7.57-45.284-29.874-52.055-58.198-12.305-51.335-12.305-158.445-12.305-158.445s0-107.11 12.305-158.445c6.771-28.324 26.723-50.629 52.055-58.198 45.916-13.757 230.040-13.757 230.040-13.757s184.124 0 230.040 13.757c25.332 7.57 45.284 29.874 52.055 58.198 12.305 51.335 12.305 158.445 12.305 158.445s0 107.11-12.305 158.445v0z" />
</font>
</defs>
</svg>
